<svg width="116" height="116" viewBox="0 0 116 116" fill="none" xmlns="http://www.w3.org/2000/svg">
<rect width="116" height="116" rx="10" fill="#F56259" fill-opacity="0.88"/>
<path d="M39.792 33.7498L41.4817 39.1569L45.537 35.7775L43.1714 31.0462C43.1714 28.7932 42.4565 25.6 41.4817 24.6252C40.4678 23.6115 33.033 30.0324 34.0469 31.0462C34.8351 31.8344 38.3275 32.9612 39.792 33.7498Z" fill="url(#paint0_linear)"/>
<path d="M40.1362 25.6572C38.3522 26.709 34.9659 29.1282 35.6927 30.3897C36.6011 31.9667 41.761 25.0833 40.1362 25.6572Z" fill="#03324A"/>
<path d="M76.9444 33.0954L71.9462 35.762L76.0213 39.1175L80.2297 35.9127C82.4433 35.4934 85.4477 34.1967 86.224 33.0575C87.0313 31.8727 79.3389 25.7628 78.5315 26.9476C77.9038 27.8688 77.4466 31.5099 76.9444 33.0954Z" fill="url(#paint1_linear)"/>
<path d="M57.5403 88.3628L56.7683 82.9255L62.5033 83.3703L62.2672 88.6406C63.3123 90.4994 64.0591 93.547 63.5095 94.9144C62.9379 96.3366 52.3192 95.335 52.8908 93.9128C53.3352 92.8071 56.4012 89.8595 57.5403 88.3628Z" fill="#164C69"/>
<path d="M61.6481 94.8405C59.3269 95.0035 54.7248 94.9643 54.8864 93.5036C55.0884 91.6777 63.584 94.3752 61.6481 94.8405Z" fill="#03324A"/>
<path d="M58.5601 30.0174L55.0357 34.4526L60.1094 35.9096L62.6951 31.2949C64.5591 30.0294 66.7995 27.6443 67.0584 26.2903C67.3276 24.8821 57.8392 22.3375 57.57 23.7457C57.3606 24.8406 58.39 28.3629 58.5601 30.0174Z" fill="#164C69"/>
<path d="M59.1342 24.4267C58.3789 26.7891 64.2805 27.9333 65.1808 26.7891C66.3062 25.3589 57.9966 23.1324 59.1342 24.4267Z" fill="#03324A"/>
<ellipse cx="58.379" cy="58.4198" rx="27.0356" ry="26.6976" fill="url(#paint2_linear)"/>
<path d="M28.9234 58.1875C28.9234 58.1875 33.7723 59.7109 34.4165 59.5723C35.0608 59.4338 34.0469 55.0405 33.6544 54.3488C33.2619 53.6572 28.3843 53.8934 28.3843 53.8934C26.4634 52.7161 23.3672 51.657 22.0268 51.9788C20.6327 52.3135 22.2221 62.0077 23.6163 61.6731C24.7002 61.4129 27.4859 59.0241 28.9234 58.1875Z" fill="url(#paint3_linear)"/>
<path d="M22.5728 53.6274C22.5374 55.6981 22.8304 59.8494 24.2858 59.889C26.105 59.9384 22.9325 51.9421 22.5728 53.6274Z" fill="url(#paint4_linear)"/>
<path d="M80.3432 81.6371C80.3432 81.6371 78.9945 75.7953 78.4935 75.2293C77.9925 74.6633 74.4287 78.3956 74.0015 79.2187C73.5743 80.0419 76.6002 84.8283 76.6002 84.8283C76.5929 87.4961 77.3726 91.2795 78.4466 92.4367C79.5636 93.6401 87.7996 86.0593 86.6826 84.8558C85.8142 83.9201 81.9588 82.5753 80.3432 81.6371Z" fill="url(#paint5_linear)"/>
<path d="M79.6887 90.8689C81.6633 89.6287 85.4129 86.7743 84.614 85.2783C83.6152 83.4082 77.8914 91.5435 79.6887 90.8689Z" fill="url(#paint6_linear)"/>
<path d="M89.0758 55.1308C89.0758 55.1308 84.2613 53.5018 83.6142 53.6263C82.9672 53.7508 83.8848 58.1652 84.2621 58.8652C84.6395 59.5653 89.521 59.4356 89.521 59.4356C91.4158 60.6546 94.488 61.7811 95.8352 61.4886C97.2363 61.1844 95.8589 51.4578 94.4578 51.762C93.3685 51.9984 90.5313 54.3258 89.0758 55.1308Z" fill="url(#paint7_linear)"/>
<path d="M95.3254 59.8286C95.406 57.7592 95.2037 53.6024 93.7495 53.5311C91.9318 53.4419 94.9289 61.5056 95.3254 59.8286Z" fill="url(#paint8_linear)"/>
<path d="M39.8359 81.5052C39.8359 81.5052 43.5579 77.4072 43.7148 76.7056C43.8717 76.0041 39.0592 74.9833 38.1952 75.0531C37.3312 75.123 35.3383 80.0602 35.3383 80.0602C33.2957 81.4192 30.8335 83.9961 30.5401 85.4713C30.235 87.0056 40.5586 89.8992 40.8638 88.365C41.101 87.1721 40.0078 83.3137 39.8359 81.5052Z" fill="url(#paint9_linear)"/>
<path d="M32.4213 85.6904C34.4553 86.6796 38.6992 88.3025 39.4029 86.88C40.2824 85.1019 30.9171 84.5578 32.4213 85.6904Z" fill="url(#paint10_linear)"/>
<path d="M58.041 46.93C62.9074 46.6596 63.4481 46.9299 65.8137 47.9438C70.207 47.9438 70.8829 49.6335 72.9106 53.013C73.9244 54.7028 73.9244 64.8411 69.8691 66.1929C65.8137 67.5447 65.4758 65.1791 62.4343 67.2067C59.3928 69.2344 53.3098 72.9518 46.8889 68.5585C40.4679 64.1652 47.2268 57.0684 47.9027 54.7028C48.5786 52.3372 51.958 47.2679 58.041 46.93Z" fill="url(#paint11_linear)" stroke="#0B3F5B" stroke-opacity="0.33"/>
<defs>
<linearGradient id="paint0_linear" x1="50.9441" y1="45.24" x2="34.7228" y2="23.6115" gradientUnits="userSpaceOnUse">
<stop offset="0.197917" stop-color="#164C69"/>
<stop offset="0.63625" stop-color="#164C69"/>
<stop offset="0.82" stop-color="#0B3F5B" stop-opacity="0.91"/>
</linearGradient>
<linearGradient id="paint1_linear" x1="85.7524" y1="25.6394" x2="70.207" y2="43.8884" gradientUnits="userSpaceOnUse">
<stop offset="0.767582" stop-color="#12435E"/>
<stop offset="0.9999" stop-color="#002A40" stop-opacity="0.0208333"/>
<stop offset="1" stop-color="#002940" stop-opacity="0"/>
</linearGradient>
<linearGradient id="paint2_linear" x1="71.2208" y1="15.5008" x2="43.5094" y2="111.815" gradientUnits="userSpaceOnUse">
<stop offset="0.151042" stop-color="#226487"/>
<stop offset="0.513025" stop-color="#164C69"/>
<stop offset="0.707058" stop-color="#084261"/>
<stop offset="0.802454" stop-color="#052637" stop-opacity="0"/>
</linearGradient>
<linearGradient id="paint3_linear" x1="36.4125" y1="56.3923" x2="21.8809" y2="56.3923" gradientUnits="userSpaceOnUse">
<stop offset="0.282969" stop-color="#0E4563"/>
<stop offset="1" stop-color="#104866"/>
</linearGradient>
<linearGradient id="paint4_linear" x1="21.6033" y1="55.8378" x2="26.6122" y2="55.3786" gradientUnits="userSpaceOnUse">
<stop stop-color="#03324A"/>
<stop offset="1" stop-color="#03324A" stop-opacity="0"/>
</linearGradient>
<linearGradient id="paint5_linear" x1="74.3451" y1="75.1706" x2="83.5673" y2="89.2956" gradientUnits="userSpaceOnUse">
<stop offset="0.282969" stop-color="#0E4563"/>
<stop offset="1" stop-color="#104866"/>
</linearGradient>
<linearGradient id="paint6_linear" x1="82.332" y1="90.4871" x2="78.7187" y2="85.9451" gradientUnits="userSpaceOnUse">
<stop stop-color="#03324A"/>
<stop offset="1" stop-color="#03324A" stop-opacity="0"/>
</linearGradient>
<linearGradient id="paint7_linear" x1="81.5493" y1="56.762" x2="96.0774" y2="57.0794" gradientUnits="userSpaceOnUse">
<stop offset="0.282969" stop-color="#0E4563"/>
<stop offset="1" stop-color="#104866"/>
</linearGradient>
<linearGradient id="paint8_linear" x1="96.3429" y1="57.6399" x2="91.3252" y2="57.9896" gradientUnits="userSpaceOnUse">
<stop stop-color="#03324A"/>
<stop offset="1" stop-color="#03324A" stop-opacity="0"/>
</linearGradient>
<linearGradient id="paint9_linear" x1="41.4776" y1="73.2644" x2="34.7933" y2="87.6262" gradientUnits="userSpaceOnUse">
<stop offset="0.282969" stop-color="#0E4563"/>
<stop offset="1" stop-color="#104866"/>
</linearGradient>
<linearGradient id="paint10_linear" x1="34.1672" y1="87.6687" x2="36.0187" y2="82.5056" gradientUnits="userSpaceOnUse">
<stop stop-color="#03324A"/>
<stop offset="1" stop-color="#03324A" stop-opacity="0"/>
</linearGradient>
<linearGradient id="paint11_linear" x1="54.6616" y1="49.9714" x2="70.207" y2="70.924" gradientUnits="userSpaceOnUse">
<stop stop-color="#12435E"/>
<stop offset="0.446984" stop-color="#12435E" stop-opacity="0.365939"/>
<stop offset="1" stop-color="#12435E"/>
</linearGradient>
</defs>
</svg>
